<?xml version="1.0" standalone="no"?><!DOCTYPE svg PUBLIC "-//W3C//DTD SVG 1.1//EN" "http://www.w3.org/Graphics/SVG/1.1/DTD/svg11.dtd"><svg t="1696494923795" class="icon" viewBox="0 0 1024 1024" version="1.1" xmlns="http://www.w3.org/2000/svg" p-id="6193" xmlns:xlink="http://www.w3.org/1999/xlink" width="260" height="260"><path d="M192 405.333333m-106.666667 0a106.666667 106.666667 0 1 0 213.333334 0 106.666667 106.666667 0 1 0-213.333334 0Z" p-id="6194" fill="#e6e6e6"></path><path d="M384 234.666667m-106.666667 0a106.666667 106.666667 0 1 0 213.333334 0 106.666667 106.666667 0 1 0-213.333334 0Z" p-id="6195" fill="#e6e6e6"></path><path d="M640 234.666667m-106.666667 0a106.666667 106.666667 0 1 0 213.333334 0 106.666667 106.666667 0 1 0-213.333334 0Z" p-id="6196" fill="#e6e6e6"></path><path d="M832 405.333333m-106.666667 0a106.666667 106.666667 0 1 0 213.333334 0 106.666667 106.666667 0 1 0-213.333334 0Z" p-id="6197" fill="#e6e6e6"></path><path d="M739.84 634.026667c-37.333333-43.306667-68.48-80.64-105.813333-123.946667-19.84-23.04-44.8-46.293333-74.453334-56.32-4.48-1.493333-9.173333-2.773333-14.08-3.626667-10.88-2.133333-22.4-2.133333-33.493333-2.133333s-22.613333 0-33.493333 2.133333c-4.693333 0.853333-9.386667 2.133333-14.08 3.626667-29.653333 10.026667-54.613333 33.28-74.453334 56.32-37.333333 43.306667-68.48 80.64-105.813333 123.946667-55.893333 55.68-124.373333 117.76-112 204.586666 12.373333 43.306667 43.52 86.826667 99.626667 99.2 31.146667 6.186667 130.56-18.56 236.373333-18.56 1.28 0 2.56 0.213333 3.84 0.213334s2.56-0.213333 3.84-0.213334c105.813333 0 205.226667 24.746667 236.373333 18.56 55.893333-12.373333 87.04-55.68 99.626667-99.2 12.373333-86.826667-55.893333-148.906667-112-204.586666z" p-id="6198" fill="#e6e6e6"></path></svg>