<?xml version="1.0" standalone="no"?><!DOCTYPE svg PUBLIC "-//W3C//DTD SVG 1.1//EN" "http://www.w3.org/Graphics/SVG/1.1/DTD/svg11.dtd"><svg t="1695968002615" class="icon" viewBox="0 0 1024 1024" version="1.1" xmlns="http://www.w3.org/2000/svg" p-id="1498" data-spm-anchor-id="a313x.search_index.0.i1.23a03a81hZof9P" width="260" height="260" xmlns:xlink="http://www.w3.org/1999/xlink"><path d="M502.9 561.5c-56.4 0-109.5-22-149.3-61.9-39.9-39.9-61.9-92.9-61.9-149.3s22-109.5 61.9-149.3 92.9-61.9 149.3-61.9c56.4 0 109.5 22 149.3 61.9 39.9 39.9 61.9 92.9 61.9 149.3s-22 109.5-61.9 149.3c-39.8 39.9-92.8 61.9-149.3 61.9z m0-358.4c-81.2 0-147.2 66-147.2 147.2s66 147.2 147.2 147.2 147.2-66 147.2-147.2-66-147.2-147.2-147.2zM756.4 759.6c-29.2 0-58.3-11.1-80.6-33.3-44.4-44.4-44.4-116.7 0-161.1 44.4-44.4 116.7-44.4 161.1 0 44.4 44.4 44.4 116.7 0 161.1-22.2 22.2-51.3 33.3-80.5 33.3z m0-163.8c-12.8 0-25.6 4.9-35.3 14.6-19.5 19.5-19.5 51.1 0 70.6 19.5 19.5 51.1 19.5 70.6 0 19.5-19.5 19.5-51.1 0-70.6-9.8-9.7-22.5-14.6-35.3-14.6z" fill="#cdcdcd" p-id="1499"></path><path d="M185.7 879.4c-17.7 0-32-14.3-32-32 0-47.1 9.2-92.9 27.4-135.9 17.6-41.6 42.8-78.9 74.8-111 32.1-32.1 69.4-57.2 111-74.8 43.1-18.2 88.8-27.4 135.9-27.4 17.7 0 32 14.3 32 32s-14.3 32-32 32c-157.3 0-285.2 127.9-285.2 285.2 0.1 17.6-14.2 31.9-31.9 31.9zM658.9 851.4L620 812.5c-12.5-12.5-12.5-32.8 0-45.3s32.8-12.5 45.3 0l38.9 38.9c12.5 12.5 12.5 32.8 0 45.3s-32.8 12.5-45.3 0z" fill="#cdcdcd" p-id="1500"></path><path d="M706.3 751.1L581.8 875.5c-12.5 12.5-32.8 12.5-45.3 0s-12.5-32.8 0-45.3L661 705.8c12.5-12.5 32.8-12.5 45.3 0 12.4 12.5 12.4 32.8 0 45.3z" fill="#cdcdcd" p-id="1501"></path></svg>