<?xml version="1.0" standalone="no"?><!DOCTYPE svg PUBLIC "-//W3C//DTD SVG 1.1//EN" "http://www.w3.org/Graphics/SVG/1.1/DTD/svg11.dtd"><svg t="1696495752912" class="icon" viewBox="0 0 1024 1024" version="1.1" xmlns="http://www.w3.org/2000/svg" p-id="9089" xmlns:xlink="http://www.w3.org/1999/xlink" width="260" height="260"><path d="M852.48 731.306667h-238.933333c-18.773333 0-34.133333-15.36-34.133334-34.133334s15.36-34.133333 34.133334-34.133333h238.933333c18.773333 0 34.133333 15.36 34.133333 34.133333s-15.36 34.133333-34.133333 34.133334z" fill="#e6e6e6" p-id="9090"></path><path d="M607.146667 730.453333c-26.88-5.546667-36.693333-38.826667-17.92-58.453333l62.72-64.426667c8.533333-8.533333 20.48-12.373333 32.426666-9.813333 26.88 5.546667 36.693333 38.826667 17.92 58.453333l-62.72 64.426667c-8.533333 8.533333-20.906667 12.373333-32.426666 9.813333zM613.546667 782.506667h238.933333c18.773333 0 34.133333 15.36 34.133333 34.133333s-15.36 34.133333-34.133333 34.133333h-238.933333c-18.773333 0-34.133333-15.36-34.133334-34.133333s15.36-34.133333 34.133334-34.133333z" fill="#e6e6e6" p-id="9091"></path><path d="M858.88 783.36c26.88 5.546667 36.693333 38.826667 17.92 58.453333l-62.72 64.426667c-8.533333 8.533333-20.48 12.373333-32.426667 9.813333-26.88-5.546667-36.693333-38.826667-17.92-58.453333l62.72-64.426667c8.533333-8.533333 20.906667-12.373333 32.426667-9.813333zM511.146667 85.333333c-136.533333 0-247.466667 110.933333-247.466667 247.466667s110.933333 247.466667 247.466667 247.466667 247.466667-110.933333 247.466666-247.466667-110.506667-247.466667-247.466666-247.466667z m0 426.666667c-98.986667 0-179.2-80.213333-179.2-179.2s80.213333-179.2 179.2-179.2 179.2 80.213333 179.2 179.2-80.213333 179.2-179.2 179.2z" fill="#e6e6e6" p-id="9092"></path><path d="M175.786667 916.48c16.64 0 29.866667-13.653333 29.866666-30.293333v-0.426667c0-168.533333 136.96-305.493333 305.493334-305.493333v-68.266667c-206.506667 0-373.76 167.253333-373.76 373.76v1.28c0 16.213333 13.653333 29.44 29.866666 29.44h8.533334z" fill="#e6e6e6" p-id="9093"></path></svg>