<?xml version="1.0" standalone="no"?><!DOCTYPE svg PUBLIC "-//W3C//DTD SVG 1.1//EN" "http://www.w3.org/Graphics/SVG/1.1/DTD/svg11.dtd"><svg t="1683213297662" class="icon" viewBox="0 0 1024 1024" version="1.1" xmlns="http://www.w3.org/2000/svg" p-id="6451" xmlns:xlink="http://www.w3.org/1999/xlink" width="200" height="200"><path d="M919.6 319L746.4 120.8l-0.7-0.8c-15.9-17.3-38.9-25.3-61.7-21.5-23.3 3.9-43 19.6-52.7 42-19.6 45.1-64 72.1-118.8 72.1h-1.9c-55.2 0.8-98.5-25.1-118.9-71.4-9.8-22.3-29.6-37.8-52.8-41.7-22.7-3.8-45.7 4.3-61.6 21.5l-0.3 0.4L104.4 319C79 346.8 65.1 383.5 65.1 422.5c0 39.2 14.1 76.1 39.7 103.9l0.3 0.3c26.4 28.7 62.8 44.6 100.3 44.6 3 0 6.1-0.1 9.2-0.3v215.4c0 77.2 62.8 140 140 140h314c77.2 0 140-62.8 140-140V570.9c3.4 0.3 6.9 0.4 10.3 0.4 37.5 0 73.8-15.9 100.2-44.6l0.2-0.2c25.6-27.8 39.7-64.8 39.7-103.9-0.1-39.1-14-75.8-39.4-103.6z m-59.3 153.3l-0.2 0.2c-13.4 14.5-31.6 21.1-50 18.1-20.4-3.4-41.2 2.3-57 15.7-15.7 13.3-24.7 32.7-24.7 53.3v226.8c0 33.1-26.9 60-60 60h-314c-33.1 0-60-26.9-60-60V559.8c0-20.5-8.9-39.8-24.5-53.1-12.8-11-29-16.9-45.6-16.9-3.6 0-7.3 0.3-11 0.9-18.2 2.9-36.3-3.8-49.5-18.1l-0.3-0.3c-24.8-27-24.8-72.6 0-99.6l0.3-0.4 161.3-184.7c16 29.8 38.9 54.7 67.1 72.8 34.5 22 76.3 33.2 120.9 32.2h0.5c80.1-0.4 149.1-40.5 184-105.9l162 185.3 0.7 0.8c24.8 26.9 24.8 72.5 0 99.5z" p-id="6452" fill="#707070"></path></svg>